<?xml version="1.0" encoding="UTF-8"?>
<svg id="Layer_2" data-name="Layer 2" xmlns="http://www.w3.org/2000/svg" viewBox="0 0 662.36 675.88">
  <defs>
    <style>
      .cls-1 {
        font-size: 104.02px;
      }

      .cls-1, .cls-2, .cls-3 {
        fill: #fff;
        font-family: Arial-Black, Arial;
        font-weight: 800;
      }

      .cls-4 {
        fill: #343233;
      }

      .cls-5 {
        letter-spacing: .08em;
      }

      .cls-2 {
        letter-spacing: .1em;
      }

      .cls-2, .cls-3 {
        font-size: 90px;
      }

      .cls-6 {
        letter-spacing: .1em;
      }

      .cls-7 {
        fill: #e05510;
      }

      .cls-8 {
        letter-spacing: .1em;
      }

      .cls-3 {
        letter-spacing: .1em;
      }
    </style>
  </defs>
  <g id="Layer_1-2" data-name="Layer 1">
    <g>
      <circle class="cls-4" cx="330.42" cy="330.42" r="330.42"/>
      <path class="cls-7" d="M548.92,371.46v11.43h107.77c-25.13,157.56-161.65,277.95-326.27,277.95S29.28,540.45,4.15,382.89h110.5v-11.43H2.52C.86,358.02,0,344.32,0,330.42c0-19.89,1.76-39.37,5.13-58.29h110.79v-11.43H7.37C39.38,111.7,171.85,0,330.42,0s291.04,111.69,323.05,260.69h-103.28v11.43h105.52c3.37,18.92,5.13,38.4,5.13,58.29,0,13.9-.86,27.6-2.52,41.04h-109.4Z"/>
      <circle class="cls-4" cx="330.42" cy="330.42" r="243.82"/>
      <g>
        <path class="cls-7" d="M144.31,380.37c0,22.71,2.88,46.89,8.22,69.96-23.12-34.23-36.62-75.49-36.62-119.91,0-5.78.23-11.5.68-17.16,9.38-20.2,19.29-31.01,27.78-37.32,8.67-6.45,17.29-9.44,25.7-8.93-3.54,7.54-6.73,15.21-9.57,23-10.74,29.43-16.19,59.83-16.19,90.36Z"/>
        <path class="cls-7" d="M119.44,291.51c4.09-22.34,11.64-43.46,22.08-62.8,16.03-3.73,32.29-4.91,52.84-3.86-7.74,11.19-14.65,22.8-20.68,34.75-11.15-1.6-22.85,1.88-33.93,10.12-7.36,5.48-14.39,13.04-20.31,21.78Z"/>
        <path class="cls-7" d="M146.66,219.71c13.41-22.21,30.73-41.8,51.01-57.79.47,4.68,2.22,8.84,3.79,11.38,3.75,6.04,9.36,10.84,16.67,14.25,1.53.71,3.14,1.37,4.81,1.95-6.44,6.86-12.57,14.02-18.37,21.46-1.67,2.14-3.3,4.3-4.9,6.47-.33-.03-.66-.06-.99-.09h-.07c-20.17-1.26-36.38-.56-51.96,2.38Z"/>
        <path class="cls-7" d="M208.05,169.22c-1.85-2.99-3.65-8.59-2.21-13.44,34.85-24.91,77.47-39.64,123.52-39.86-37.07,15.11-71.51,38.24-100.4,67.34-9.45-2.57-16.82-7.45-20.91-14.04Z"/>
        <path class="cls-7" d="M366.51,532.99c6.87,1.85,13.98,3.25,21.28,4.17-18.26,5.06-37.5,7.76-57.37,7.76-66.61,0-126.13-30.36-165.47-78-8.32-27.7-12.89-58.29-12.89-86.56s5.29-59.13,15.72-87.71c3-8.22,6.41-16.32,10.21-24.26,9.2,2.47,19.52,8.3,32.15,26.02,8.47,11.88,17.19,28.17,25.89,48.41,10.06,23.4,20.45,52.85,30.88,87.54,11.13,37.01,30.66,65.19,58.06,83.77,12.41,8.41,26.39,14.76,41.54,18.85Z"/>
        <path class="cls-7" d="M238.25,184.96c31.86-30.97,70.24-54.63,111.21-68.21,60.78,5.35,114.28,36.04,149.88,81.45-3.78-3.36-7.7-6.56-11.75-9.58-20.6-15.37-39.94-22.71-52.53-26.16-36.43-9.99-73.72-.05-109.78,9.55-24.94,6.64-50.62,13.48-75.59,13.48-3.28,0-6.56-.12-9.82-.37-.54-.04-1.08-.09-1.62-.15Z"/>
        <path class="cls-7" d="M519.01,432.7c-24.26,44.63-63.9,79.7-111.81,98.07-13.52-.21-26.51-1.97-38.67-5.26-14.32-3.87-27.51-9.85-39.21-17.78-25.89-17.55-44.39-44.32-54.99-79.59-10.52-34.97-21.01-64.71-31.19-88.37-8.92-20.75-17.9-37.52-26.7-49.85-13.33-18.69-24.97-25.57-34.96-28.58,6.33-12.33,13.62-24.27,21.83-35.76,35.63,4.23,97.45,24.13,161.22,60.76,34.69,19.93,65.34,42.16,91.1,66.08,27.56,25.59,48.85,52.56,63.37,80.28Z"/>
        <path class="cls-7" d="M544.92,330.42c0,33.69-7.77,65.57-21.61,93.94-14.82-26.82-35.77-52.88-62.4-77.61-26.19-24.32-57.32-46.9-92.51-67.12-30.47-17.5-63.24-32.7-94.75-43.95-24.18-8.63-46.84-14.6-65.08-17.22.7-.92,1.4-1.83,2.11-2.74,6.51-8.36,13.46-16.35,20.79-23.94,2.53.49,5.14.85,7.81,1.06,3.48.27,6.97.39,10.46.39,25.93,0,52.12-6.97,77.54-13.74,17.67-4.71,35.94-9.57,53.68-11.94,19.65-2.62,36.68-1.84,52.06,2.37,11.95,3.28,30.31,10.26,49.95,24.9,16.47,12.29,30.63,27.57,42.19,45.52,12.69,27.39,19.77,57.9,19.77,90.07Z"/>
      </g>
      <text class="cls-2" transform="translate(93.05 234.12) rotate(-61.9) scale(.71 1)"><tspan x="0" y="0">R</tspan></text>
      <text class="cls-2" transform="translate(163.64 139.15) rotate(-38.17) scale(.71 1)"><tspan x="0" y="0">U</tspan></text>
      <text class="cls-3" transform="translate(255.67 86.6) rotate(-11.32) scale(.71 1)"><tspan x="0" y="0">L</tspan></text>
      <text class="cls-3" transform="translate(360.8 76.71) rotate(13.77) scale(.71 1)"><tspan x="0" y="0">E</tspan></text>
      <text class="cls-2" transform="translate(460.26 110.7) rotate(35.56) scale(.71 1)"><tspan x="0" y="0">R</tspan></text>
      <text class="cls-3" transform="translate(539.17 182.5) rotate(62.59) scale(.71 1)"><tspan x="0" y="0">S</tspan></text>
      <text class="cls-1" transform="translate(30.22 358.01) scale(.71 1)"><tspan class="cls-5" x="0" y="0">B</tspan><tspan class="cls-8" x="89.54" y="0">ASKET</tspan><tspan class="cls-5" x="534.49" y="0">B</tspan><tspan class="cls-6" x="624.03" y="0">ALL</tspan></text>
      <text class="cls-2" transform="translate(24.93 430.91) rotate(63.92) scale(.71 1)"><tspan x="0" y="0">A</tspan></text>
      <text class="cls-2" transform="translate(80.86 530.57) rotate(45.83) scale(.71 1)"><tspan x="0" y="0">C</tspan></text>
      <text class="cls-2" transform="translate(190.8 617.56) rotate(20.87) scale(.71 1)"><tspan x="0" y="0">A</tspan></text>
      <text class="cls-2" transform="translate(316.56 648.31) rotate(-2.76) scale(.71 1)"><tspan x="0" y="0">D</tspan></text>
      <text class="cls-3" transform="translate(433.5 630.46) rotate(-24.01) scale(.71 1)"><tspan x="0" y="0">E</tspan></text>
      <text class="cls-3" transform="translate(534.71 574.56) rotate(-45.83) scale(.71 1)"><tspan x="0" y="0">M</tspan></text>
      <text class="cls-2" transform="translate(616.17 475) rotate(-65) scale(.71 1)"><tspan x="0" y="0">Y</tspan></text>
    </g>
  </g>
</svg>