<svg xmlns="http://www.w3.org/2000/svg" viewBox="0 0 290 290" width="290" height="290">
  <rect width="290" height="290" fill="white"/>
  <!-- Top-left finder pattern -->
  <rect x="10" y="10" width="70" height="70" fill="black"/>
  <rect x="15" y="15" width="60" height="60" fill="white"/>
  <rect x="25" y="25" width="40" height="40" fill="black"/>
  <!-- Top-right finder pattern -->
  <rect x="210" y="10" width="70" height="70" fill="black"/>
  <rect x="215" y="15" width="60" height="60" fill="white"/>
  <rect x="225" y="25" width="40" height="40" fill="black"/>
  <!-- Bottom-left finder pattern -->
  <rect x="10" y="210" width="70" height="70" fill="black"/>
  <rect x="15" y="215" width="60" height="60" fill="white"/>
  <rect x="25" y="225" width="40" height="40" fill="black"/>
  <!-- Data modules row 1 -->
  <rect x="90" y="10" width="10" height="10" fill="black"/>
  <rect x="110" y="10" width="10" height="10" fill="black"/>
  <rect x="130" y="10" width="10" height="10" fill="black"/>
  <rect x="160" y="10" width="10" height="10" fill="black"/>
  <rect x="190" y="10" width="10" height="10" fill="black"/>
  <!-- Data modules row 2 -->
  <rect x="90" y="30" width="10" height="10" fill="black"/>
  <rect x="120" y="30" width="10" height="10" fill="black"/>
  <rect x="150" y="30" width="10" height="10" fill="black"/>
  <rect x="170" y="30" width="10" height="10" fill="black"/>
  <rect x="190" y="30" width="10" height="10" fill="black"/>
  <!-- Data modules row 3 -->
  <rect x="100" y="50" width="10" height="10" fill="black"/>
  <rect x="130" y="50" width="10" height="10" fill="black"/>
  <rect x="150" y="50" width="10" height="10" fill="black"/>
  <rect x="180" y="50" width="10" height="10" fill="black"/>
  <!-- Data modules row 4 -->
  <rect x="90" y="70" width="10" height="10" fill="black"/>
  <rect x="110" y="70" width="10" height="10" fill="black"/>
  <rect x="140" y="70" width="10" height="10" fill="black"/>
  <rect x="170" y="70" width="10" height="10" fill="black"/>
  <rect x="190" y="70" width="10" height="10" fill="black"/>
  <!-- Middle rows -->
  <rect x="10" y="90" width="10" height="10" fill="black"/>
  <rect x="40" y="90" width="10" height="10" fill="black"/>
  <rect x="70" y="90" width="10" height="10" fill="black"/>
  <rect x="100" y="90" width="10" height="10" fill="black"/>
  <rect x="130" y="90" width="10" height="10" fill="black"/>
  <rect x="160" y="90" width="10" height="10" fill="black"/>
  <rect x="190" y="90" width="10" height="10" fill="black"/>
  <rect x="220" y="90" width="10" height="10" fill="black"/>
  <rect x="250" y="90" width="10" height="10" fill="black"/>
  <rect x="270" y="90" width="10" height="10" fill="black"/>
  <rect x="20" y="110" width="10" height="10" fill="black"/>
  <rect x="50" y="110" width="10" height="10" fill="black"/>
  <rect x="80" y="110" width="10" height="10" fill="black"/>
  <rect x="110" y="110" width="10" height="10" fill="black"/>
  <rect x="140" y="110" width="10" height="10" fill="black"/>
  <rect x="170" y="110" width="10" height="10" fill="black"/>
  <rect x="200" y="110" width="10" height="10" fill="black"/>
  <rect x="230" y="110" width="10" height="10" fill="black"/>
  <rect x="260" y="110" width="10" height="10" fill="black"/>
  <rect x="10" y="130" width="10" height="10" fill="black"/>
  <rect x="30" y="130" width="10" height="10" fill="black"/>
  <rect x="60" y="130" width="10" height="10" fill="black"/>
  <rect x="90" y="130" width="10" height="10" fill="black"/>
  <rect x="120" y="130" width="10" height="10" fill="black"/>
  <rect x="150" y="130" width="10" height="10" fill="black"/>
  <rect x="180" y="130" width="10" height="10" fill="black"/>
  <rect x="210" y="130" width="10" height="10" fill="black"/>
  <rect x="240" y="130" width="10" height="10" fill="black"/>
  <rect x="270" y="130" width="10" height="10" fill="black"/>
  <rect x="20" y="150" width="10" height="10" fill="black"/>
  <rect x="40" y="150" width="10" height="10" fill="black"/>
  <rect x="70" y="150" width="10" height="10" fill="black"/>
  <rect x="100" y="150" width="10" height="10" fill="black"/>
  <rect x="130" y="150" width="10" height="10" fill="black"/>
  <rect x="160" y="150" width="10" height="10" fill="black"/>
  <rect x="190" y="150" width="10" height="10" fill="black"/>
  <rect x="220" y="150" width="10" height="10" fill="black"/>
  <rect x="250" y="150" width="10" height="10" fill="black"/>
  <rect x="10" y="170" width="10" height="10" fill="black"/>
  <rect x="50" y="170" width="10" height="10" fill="black"/>
  <rect x="80" y="170" width="10" height="10" fill="black"/>
  <rect x="110" y="170" width="10" height="10" fill="black"/>
  <rect x="140" y="170" width="10" height="10" fill="black"/>
  <rect x="170" y="170" width="10" height="10" fill="black"/>
  <rect x="200" y="170" width="10" height="10" fill="black"/>
  <rect x="240" y="170" width="10" height="10" fill="black"/>
  <rect x="270" y="170" width="10" height="10" fill="black"/>
  <rect x="30" y="190" width="10" height="10" fill="black"/>
  <rect x="60" y="190" width="10" height="10" fill="black"/>
  <rect x="90" y="190" width="10" height="10" fill="black"/>
  <rect x="120" y="190" width="10" height="10" fill="black"/>
  <rect x="150" y="190" width="10" height="10" fill="black"/>
  <rect x="180" y="190" width="10" height="10" fill="black"/>
  <rect x="210" y="190" width="10" height="10" fill="black"/>
  <rect x="240" y="190" width="10" height="10" fill="black"/>
  <!-- Bottom-right data -->
  <rect x="90" y="210" width="10" height="10" fill="black"/>
  <rect x="120" y="210" width="10" height="10" fill="black"/>
  <rect x="150" y="210" width="10" height="10" fill="black"/>
  <rect x="180" y="210" width="10" height="10" fill="black"/>
  <rect x="210" y="210" width="10" height="10" fill="black"/>
  <rect x="240" y="210" width="10" height="10" fill="black"/>
  <rect x="270" y="210" width="10" height="10" fill="black"/>
  <rect x="100" y="230" width="10" height="10" fill="black"/>
  <rect x="130" y="230" width="10" height="10" fill="black"/>
  <rect x="160" y="230" width="10" height="10" fill="black"/>
  <rect x="190" y="230" width="10" height="10" fill="black"/>
  <rect x="220" y="230" width="10" height="10" fill="black"/>
  <rect x="250" y="230" width="10" height="10" fill="black"/>
  <rect x="90" y="250" width="10" height="10" fill="black"/>
  <rect x="110" y="250" width="10" height="10" fill="black"/>
  <rect x="140" y="250" width="10" height="10" fill="black"/>
  <rect x="170" y="250" width="10" height="10" fill="black"/>
  <rect x="200" y="250" width="10" height="10" fill="black"/>
  <rect x="230" y="250" width="10" height="10" fill="black"/>
  <rect x="260" y="250" width="10" height="10" fill="black"/>
  <rect x="100" y="270" width="10" height="10" fill="black"/>
  <rect x="120" y="270" width="10" height="10" fill="black"/>
  <rect x="150" y="270" width="10" height="10" fill="black"/>
  <rect x="180" y="270" width="10" height="10" fill="black"/>
  <rect x="210" y="270" width="10" height="10" fill="black"/>
  <rect x="240" y="270" width="10" height="10" fill="black"/>
  <rect x="270" y="270" width="10" height="10" fill="black"/>
</svg>
